<?xml version="1.0" encoding="utf-8"?>
<!-- Generator: Adobe Illustrator 18.1.1, SVG Export Plug-In . SVG Version: 6.00 Build 0)  -->
<svg version="1.1" id="Layer_1" xmlns="http://www.w3.org/2000/svg" xmlns:xlink="http://www.w3.org/1999/xlink" x="0px" y="0px"
	 width="612px" height="612px" viewBox="0 0 612 612" enable-background="new 0 0 612 612" xml:space="preserve">
<g>
	<polygon points="53.1,193.9 45.9,217.8 146.2,217.8 150.5,193.9 	"/>
	<polygon points="95.7,248.7 88.4,271.9 136.8,271.9 141.1,248.7 	"/>
	<path d="M163.5,139.8h-153l-7.2,23.1h152.3l1.5-8.7C158.5,148.5,160.6,143.4,163.5,139.8z"/>
	<g id="path-1">
		<path d="M385.8,154.2c3.6,0,5.7,2.9,6.5,5.7l-35.3,203.5H149.7l34.7-200.6v-0.7v-0.7c0-2.2,1.5-7.2,6.5-7.2H385.8 M507,198.3
			c13.7,0,26.7,6.5,33.9,18l35.3,62.8v0.7v0.7c4.4,6.5,7.2,14.5,7.2,22.4L569,397.5l-2.2,16.6h16.6h9.4v6.5h-38.2
			c-9.4-28.9-36.8-49.8-68.5-49.8s-58.4,20.9-68.5,49.8h-90.1c-0.7-2.2-1.5-4.4-2.9-6.5h65.6h12.3l2.2-11.6l36.1-201.4v-1.5V199H507
			 M193.1,413.3c-0.7,2.2-2.2,4.4-2.9,6.5h-59.9v-6.5H193.1 M385.8,139.8H190.9c-11.6,0-20.2,8.7-20.9,20.9l-36.1,210
			c0,3.6,2.9,7.2,7.2,7.2h222.3c3.6,0,7.2-2.9,7.2-7.2l36.1-210C406.7,149.1,397.3,139.8,385.8,139.8L385.8,139.8z M507,183.8h-66.4
			c-7.9,0-13.7,6.5-13.7,14.5l-36.1,201.4H297c10.1,8.7,17.3,21.7,19.5,35.3h114.1c4.4-28.1,28.1-49.8,57-49.8s52.7,21.7,57,49.8h57
			c3.6,0,7.2-2.9,7.2-7.2v-21.7c0-3.6-2.9-7.2-7.2-7.2h-17.3l14.5-96c0-11.6-3.6-22.4-9.4-31.8L554,207.7
			C543.1,192.5,525.8,183.8,507,183.8L507,183.8z M221.2,398.9h-97.4c-3.6,0-7.2,2.9-7.2,7.2v21.7c0,3.6,2.9,7.2,7.2,7.2h78.7
			C203.9,420.5,211.1,408.3,221.2,398.9L221.2,398.9z"/>
	</g>
	<path id="path-1_2_" d="M303.5,442.9c0,24.6-19.5,44.1-43.3,44.1s-43.3-19.5-43.3-44.1c0-24.6,19.5-44.1,43.3-44.1
		S303.5,419.1,303.5,442.9z M281.1,442.9c0-12.3-10.1-21.7-21.7-21.7c-12.3,0-21.7,10.1-21.7,21.7c0,12.3,10.1,21.7,21.7,21.7
		C271.7,465.3,281.1,455.2,281.1,442.9z M531.5,442.9c0,24.6-19.5,44.1-43.3,44.1c-23.8,0-43.3-19.5-43.3-44.1
		c0-24.6,19.5-44.1,43.3-44.1C512,398.9,531.5,419.1,531.5,442.9z M509.9,442.9c0-12.3-10.1-21.7-21.7-21.7s-21.7,10.1-21.7,21.7
		c0,12.3,10.1,21.7,21.7,21.7C499.8,465.3,509.9,455.2,509.9,442.9z"/>
	<g>
		<path d="M512.8,234.3l18.8,33.9h-64.3l3.6-33.9H512.8 M517.9,219.9h-53.4c-3.6,0-7.2,2.9-7.2,7.2l-5,49.1c0,3.6,2.9,7.2,7.2,7.2
			h85.1c5.7,0,8.7-6.5,5.7-10.8l-26.7-49C522.2,220.6,520,219.9,517.9,219.9L517.9,219.9z"/>
	</g>
</g>
</svg>
